<?xml version="1.0" encoding="UTF-8"?>
<svg width="752pt" height="752pt" version="1.1" viewBox="0 0 752 752" xmlns="http://www.w3.org/2000/svg">
 <defs>
  <clipPath id="a">
   <path d="m139.21 139.21h473.58v473.58h-473.58z"/>
  </clipPath>
 </defs>
 <g clip-path="url(#a)">
  <path d="m591.91 238.54c-6.4062-4.8086-13.672-8.2695-21.301-10.332 11.145-17.754 12.402-33.348 11.191-43.891-1.9375-17.066-10.918-29.504-18.035-34.984-5.9531-4.5938-12.398-7.5352-19.191-8.6758-10.598-1.7773-20.832 1.0469-29.734 6.2812-6.0391-3.3633-12.586-5.707-19.332-6.8438-19.734-3.2969-37.871 3.7422-51.051 19.906-4.7969 5.8789-10.797 13.699-17.734 22.773-24.133 31.445-60.648 79.059-98.695 112.76-24.551 21.727-52.098 43.277-76.406 62.258-24.527 19.215-45.707 35.762-58.848 48.539-21.305 20.711-24.434 51.609-16.574 70.148 0.44531 1.0703 0.99609 2.0156 1.4883 2.9922-20.453 13.691-33.547 31.211-36.973 49.574-2.3789 12.75 0.3125 25.059 7.2852 35.266 19.824 29.043 71.211 16.52 84.988 8.8398 0.26172 0.6875 0.51562 1.5352 0.78516 2.2148 8.2344 19.426 25.141 33.051 45.266 36.41 9.1875 1.543 18.398 0.77734 26.645-2.2891 19.715-7.2891 117.68-66.598 179.94-129.63 40.246-40.715 72.234-75.832 117.7-157.07 12.043-21.543 16.73-63.148-11.41-84.242zm-82.098-6.2773c-25.949 1.1641-39.633 5.8516-46.625 15.809-2.9844 4.2422-4.8555 10.191-7.25 17.703-4.3867 13.934-10.457 33.062-26.848 48.25-7.7578 7.1797-18.422 12.652-28.785 17.867-7.6055 3.8867-15.371 7.8477-22.32 12.66-3.0312 2.0781-5.9141 4.2383-8.5352 6.707-3.5312 3.293-6.6211 7.207-9.4922 11.465-4.1992 6.3125-7.8555 13.32-11.434 20.199-6.8906 13.316-14.008 27.031-24.469 34.102-11.082 7.5-25.652 13.316-38.504 18.438-10.051 4-18.719 7.457-24.375 11.211-9.8359 6.4688-19.27 25-27.203 43.98-1.5586 3.7031-3.0391 7.4414-4.4961 11.098-0.63281 1.6445-1.2422 3.25-1.875 4.8359l-1.0273 2.6758c-0.22266 0.55078-0.69141 1.6758-1.4219 3.0039-2.0547 3.7695-6.1562 9.2695-12.281 8.2266-1.3672-0.21484-2.8164-0.70703-4.3633-1.5391-6.3789-3.3672-7.8867-6.5859-6.4531-13.582 0.42969-2.0977 1.0938-4.5 1.9844-7.3672 0.29297-0.92187 0.60156-1.9648 0.96094-3.082 0.91406-2.8828 2.0547-6.3984 3.4141-10.285 0.085938-0.28516 0.17578-0.53516 0.28516-0.85156 1.8789-5.3555 4.1289-11.395 6.8086-17.723 2.8828-6.7539 6.2148-13.699 10.027-20.27 6-10.328 13.133-19.617 21.367-25.043 6.2227-4.0977 12.898-5.5469 20.488-6.8711 0.82422-0.11328 1.6758-0.28906 2.5469-0.45312 6.5508-1.0859 13.617-2.3633 21.148-5.0898 6.293-2.2305 12.891-5.5 19.895-10.664 6.5977-4.8359 11.527-11.613 15.789-19.051 2.9609-5.1445 5.6016-10.594 8.168-15.996 1.4258-3.0312 2.8789-6.0469 4.3906-9.0312 4.2617-8.4805 9.0234-16.52 15.406-22.254 6.8008-6.1328 13.184-9.9727 19.691-13.34 2.2773-1.1602 4.5859-2.3008 6.9062-3.4336 6.3281-3.082 12.836-6.2305 19.516-10.855 2.457-1.7344 4.9531-3.6094 7.4844-5.8125 8.7812-7.5859 14.281-16.281 18.305-25.07 2.8359-6.1836 4.9492-12.488 6.9141-18.391 1.4336-4.2891 2.8398-8.4141 4.4102-12.156 1.3164-3.1719 2.7422-6.0898 4.4688-8.5547 3.2969-4.668 7.0938-8.5117 11.27-11.734 6.1484-4.7188 13.129-8.0547 20.695-10.355 4.9258-1.5156 10.086-2.6094 15.371-3.4102 8.2891-1.2109 16.895-1.7344 25.504-1.9766 0.82422 0 1.6484 0.027344 2.4453 0.17188 1.0898 0.1875 2.1211 0.56641 3.1211 1.0195 3.918 1.7812 6.8242 5.3555 7.8047 9.7656 0.20312 0.97266 0.35938 1.9414 0.39453 2.9648 0.097656 4.9023-2.6133 8.1992-6.3125 10.094-2.293 1.1602-4.9648 1.7773-7.5977 1.8516-1.8008 0.023437-3.5938 0.097656-5.3125 0.14453zm-303.43 189.81c12.359-12.02 33.129-28.281 57.195-47.07 24.547-19.199 52.363-40.926 77.352-63.086 39.562-35.027 76.793-83.562 101.4-115.67 6.8594-8.9062 12.758-16.613 17.371-22.258 10.84-13.316 23.758-14.332 32.672-12.816 1.6484 0.28516 3.2969 0.70703 4.9219 1.1836-1.8125 2.25-3.4414 4.5703-4.8906 6.918-1.6094 2.6055-7.9766 11.633-17.465 24.504-17.691 4.4336-33.688 12.984-45.43 29.742-5.2344 7.4453-8.1016 16.07-11.152 25.191-4.2656 12.777-8.6602 25.977-20.211 35.953-7.7969 6.707-15.445 10.422-23.52 14.363-9.5703 4.6406-19.461 9.457-30.359 19.312-11.074 9.9727-17.5 23.504-23.723 36.59-5.6406 11.824-10.945 22.965-18.762 28.727-12.418 9.168-23.598 11.066-34.414 12.918-9.4922 1.6094-19.316 3.2695-28.949 9.6602-18.645 12.262-31.836 38.18-40.25 59.344-1.1836 0.85156-2.3359 1.6562-3.4766 2.4219-0.03125-0.074219-0.09375-0.19531-0.14062-0.24219-5.0273-11.938-2.0078-32.25 11.828-45.684zm379.62-110.21c-44.254 79.109-73.98 111.74-114.29 152.55-60.422 61.16-156.05 118.83-172.68 124.96-5.1133 1.8984-10.953 2.3477-16.875 1.3555-13.371-2.2305-24.59-11.176-30.012-23.977-0.89062-2.1094-1.5078-4.4414-1.9102-6.9648-0.72266-4.5703-0.60156-9.7227 0.42187-15.031 1.7695-9.0469 6.2266-18.457 13.84-25.852 12.316-11.992 33.176-27.469 57.359-45.453 1.0195-0.73828 2.082-1.5195 3.1016-2.3242 21.715-16.117 45.539-33.934 67.934-52.801 4.2891-3.5977 8.5586-7.2461 12.68-10.902 15.293-13.551 30.223-29.41 44.207-45.668 20.43-23.82 38.84-48.488 53.324-68.086 1.0273-1.4141 2.0742-2.8242 3.0547-4.1719 8.457-11.465 15.75-21.348 21.258-28.113 4.6406-5.707 9.6484-9.2148 14.602-11.328 5.1055-2.125 10.145-2.7656 14.629-2.6016 1.7656 0.089843 3.457 0.23828 5.043 0.49609 6.5781 1.0898 13.188 3.9492 18.598 8.0312 17.012 12.723 14.238 40.641 5.7148 55.879z"/>
 </g>
</svg>
